<svg xmlns="http://www.w3.org/2000/svg"><style>:root svg:not(:target){display:none}</style><svg viewBox="0 0 24 24" fill="none" stroke="#e17100" stroke-width="2" stroke-linecap="round" stroke-linejoin="round" class="lucide lucide-code text-amber-600" data-fg-d7ai4="1.20:1.2801:/src/app/components/About.tsx:15:13:486:45:e:Code::::::CwPC" id="about"><polyline points="16 18 22 12 16 6"></polyline><polyline points="8 6 2 12 8 18"></polyline></svg><svg viewBox="0 0 24 24" fill="none" stroke="#ffffff" stroke-width="2" stroke-linecap="round" stroke-linejoin="round" class="lucide lucide-github" data-fg-eh6d20="1.16:1.4181:/src/app/components/Hero.tsx:54:17:2544:20:e:Github::::::DFqi" id="github"><path d="M15 22v-4a4.8 4.8 0 0 0-1-3.5c3 0 6-2 6-5.5.08-1.25-.27-2.48-1-3.5.28-1.15.28-2.35 0-3.5 0 0-1 0-3 1.5-2.64-.5-5.36-.5-8 0C6 2 5 2 5 2c-.3 1.15-.3 2.35 0 3.5A5.403 5.403 0 0 0 4 9c0 3.5 3 5.5 6 5.5-.39.49-.68 1.05-.85 1.65-.17.6-.22 1.23-.15 1.85v4"></path><path d="M9 18c-4.51 2-5-2-7-2"></path></svg><svg viewBox="0 0 24 24" fill="none" stroke="white" stroke-width="2" stroke-linecap="round" stroke-linejoin="round" class="lucide lucide-external-link" data-fg-cyth10="1.21:1.8192:/src/app/components/Projects.tsx:105:11:5262:26:e:ExternalLink::::::B1a0" id="link"><path d="M15 3h6v6"></path><path d="M10 14 21 3"></path><path d="M18 13v6a2 2 0 0 1-2 2H5a2 2 0 0 1-2-2V8a2 2 0 0 1 2-2h6"></path></svg><svg viewBox="0 0 24 24" fill="none" stroke="#ffffff" stroke-width="2" stroke-linecap="round" stroke-linejoin="round" class="lucide lucide-mail" data-fg-eh6d24="1.16:1.4181:/src/app/components/Hero.tsx:70:17:3228:18:e:Mail::::::D8Ro" id="mail"><rect width="20" height="16" x="2" y="4" rx="2"></rect><path d="m22 7-8.97 5.7a1.94 1.94 0 0 1-2.06 0L2 7"></path></svg><svg viewBox="0 0 24 24" fill="none" stroke="#ffffff" stroke-width="2" stroke-linecap="round" stroke-linejoin="round" class="lucide lucide-send" data-fg-eh6d22="1.16:131.50:/src/app/components/Hero.tsx:63:17:2916:18:e:Send::::::hp9" id="tg"><path d="M14.536 21.686a.5.5 0 0 0 .937-.024l6.5-19a.496.496 0 0 0-.635-.635l-19 6.5a.5.5 0 0 0-.024.937l7.93 3.18a2 2 0 0 1 1.112 1.11z"></path><path d="m21.854 2.147-10.94 10.939"></path></svg></svg>